{"title":"Home 2015 HDRip XViD AC3-26k ","uid":11955713,"size":1547386552,"categoryP":"video","categoryS":"movies","magnet":"?xt=urn:btih:1e2b4ee83fce7a9ab8f7ebea484f18c970859cb9&amp;dn=Home+2015+HDRip+XViD+AC3-26k+&amp;tr=udp%3A%2F%2Ftracker.openbittorrent.com%3A80&amp;tr=udp%3A%2F%2Fopen.demonii.com%3A1337&amp;tr=udp%3A%2F%2Ftracker.coppersurfer.tk%3A6969&amp;tr=udp%3A%2F%2Fexodus.desync.com%3A6969","seeders":1,"leechers":1,"uploader":null,"files":3,"time":1432401012,"description":" &lt;a href=&quot;http://www.imdb.com/title/tt2224026/&quot; rel=&quot;nofollow&quot; target=&quot;_NEW&quot;&gt;http://www.imdb.com/title/tt2224026/&lt;/a&gt;\n\nPlot:\n\nOh, an alien on the run from his own people, lands on Earth and makes friends with the adventurous Tip, who is on a quest of her own.\n\nSources - VIDEO: RU 1080p WEB-DL ....Thanks :P\n          AUDIO: A Special Friend ....Thanks :P\n\n\nComplete name               : Home.2015.HDRip.XViD.AC3-26k.avi\nFormat                      : AVI\nFormat/Info                 : Audio Video Interleave\nFile size                   : 1.41 GiB\nDuration                    : 1h 34mn\nOverall bit rate            : 2 141 Kbps\n\nVideo\nID                          : 0\nFormat                      : MPEG-4 Visual\nFormat profile              : Advanced Simple@L5\nFormat settings, BVOP       : 1\nFormat settings, QPel       : No\nFormat settings, GMC        : No warppoints\nFormat settings, Matrix     : Default (H.263)\nCodec ID                    : XVID\nCodec ID/Hint               : XviD\nDuration                    : 1h 34mn\nBit rate                    : 1 752 Kbps\nWidth                       : 720 pixels\nHeight                      : 384 pixels\nDisplay aspect ratio        : 1.85:1\nFrame rate                  : 23.976 fps\nColor space                 : YUV\nChroma subsampling          : 4:2:0\nBit depth                   : 8 bits\nScan type                   : Progressive\nCompression mode            : Lossy\nBits/(Pixel*Frame)          : 0.264\nStream size                 : 1.16 GiB (82%)\nWriting library             : XviD 1.2.1 (UTC 2008-12-04)\n\nAudio\nID                          : 1\nFormat                      : AC-3\nFormat/Info                 : Audio Coding 3\nMode extension              : CM (complete main)\nFormat settings, Endianness : Big\nCodec ID                    : 2000\nDuration                    : 1h 33mn\nBit rate mode               : Constant\nBit rate                    : 384 Kbps\nChannel(s)                  : 6 channels\nChannel positions           : Front: L C R, Side: L R, LFE\nSampling rate               : 48.0 KHz\nBit depth                   : 16 bits\nCompression mode            : Lossy\nStream size                 : 258 MiB (18%)\nAlignment                   : Aligned on interleaves\nInterleave, duration        : 64 ms (1.54 video frames)\nInterleave, preload duratio : 192 ms\n\n\n\nNotes -\n\nTook the nice 1080p Russian WEB-DL made a script to resize, slight denoise, sharpen and slight other\nadjustments then took the nice LEGIT 5.1 AC3 Studio Audio we got passed to us from our Special Friend and synced ( 3 cuts ) and muxed it to our finished encode\t\n\n720p coming soon .. \nenjoy....\n\n[/code]\n\nScreens:\n\n[img]http://i.imgur.com/ofBBttV.jpg[/img]\n[img]http://i.imgur.com/bzZKDWQ.jpg[/img]\n[img]http://i.imgur.com/N4jPuRm.jpg[/img]\n[img]http://i.imgur.com/5bXkEXB.jpg[/img]\n[img]http://i.imgur.com/4CW4gdk.jpg[/img]\n[img]http://i.imgur.com/gWYyvJ9.jpg[/img]\n\nGreetz:\n\nTo all our people past and present who have helped us out and to the anti piracy agencies a big\nFUCK YOU.. Damn you guys are studid busting a guy and thinking he is the founder and leader of an UNKNOWN group of peole he was just an uploader.. come find us if you can bitches as this upload the the ones to come will not link back to him in any way shape or form.. This is just to prove u guys cant do your job properly and will do ANYTHING to get a conviction of an INNOCENT man.. \n\n\n\n\nAnything to offer email us @: &lt;a class=&quot;__cf_email__&quot; href=&quot;/cdn-cgi/l/email-protection&quot; data-cfemail=&quot;f1b7a4b2bab7b0b2a5b1b9a4a2b9bcb0b8bddfbcb4&quot;&gt;[email&amp;#160;protected]&lt;/a&gt;&lt;script data-cfhash='f9e31' type=&quot;text/javascript&quot;&gt;\n/* &lt;![CDATA[ */!function(){try{var t=&quot;currentScript&quot;in document?document.currentScript:function(){for(var t=document.getElementsByTagName(&quot;script&quot;),e=t.length;e--;)if(t[e].getAttribute(&quot;data-cfhash&quot;))return t[e]}();if(t&amp;&amp;t.previousSibling){var e,r,n,i,c=t.previousSibling,a=c.getAttribute(&quot;data-cfemail&quot;);if(a){for(e=&quot;&quot;,r=parseInt(a.substr(0,2),16),n=2;a.length-n;n+=2)i=parseInt(a.substr(n,2),16)^r,e+=String.fromCharCode(i);e=document.createTextNode(e),c.parentNode.replaceChild(e,c)}t.parentNode.removeChild(t);}}catch(u){}}()/* ]]&gt; */&lt;/script&gt;","torrent":{"xt":"urn:btih:1e2b4ee83fce7a9ab8f7ebea484f18c970859cb9","amp;dn":"Home+2015+HDRip+XViD+AC3-26k+","amp;tr":["udp%3A%2F%2Ftracker.openbittorrent.com%3A80","udp%3A%2F%2Fopen.demonii.com%3A1337","udp%3A%2F%2Ftracker.coppersurfer.tk%3A6969","udp%3A%2F%2Fexodus.desync.com%3A6969"],"infoHash":"1e2b4ee83fce7a9ab8f7ebea484f18c970859cb9","infoHashBuffer":{"type":"Buffer","data":[30,43,78,232,63,206,122,154,184,247,235,234,72,79,24,201,112,133,156,185]},"announce":[],"urlList":[]}}